<svg viewBox="-140 -140 280 280" xmlns="http://www.w3.org/2000/svg">
  <path d="M 0.00,0.00 Q 13.00,25.00 122.00,0.00 Q 13.00,-25.00 0.00,0.00 Z" fill="#8E4585"/>
  <path d="M 0.00,0.00 Q -8.49,26.87 86.27,86.27 Q 26.87,-8.49 0.00,0.00 Z" fill="#E0A93B"/>
  <path d="M 0.00,0.00 Q -25.00,13.00 0.00,122.00 Q 25.00,13.00 0.00,0.00 Z" fill="#F26B3A"/>
  <path d="M -0.00,0.00 Q -26.87,-8.49 -86.27,86.27 Q 8.49,26.87 -0.00,0.00 Z" fill="#1F9E8F"/>
  <path d="M -0.00,0.00 Q -13.00,-25.00 -122.00,0.00 Q -13.00,25.00 -0.00,0.00 Z" fill="#8E4585"/>
  <path d="M 0.00,-0.00 Q 8.49,-26.87 -86.27,-86.27 Q -26.87,8.49 0.00,-0.00 Z" fill="#E0A93B"/>
  <path d="M 0.00,-0.00 Q 25.00,-13.00 -0.00,-122.00 Q -25.00,-13.00 0.00,-0.00 Z" fill="#F26B3A"/>
  <path d="M 0.00,0.00 Q 26.87,8.49 86.27,-86.27 Q -8.49,-26.87 0.00,0.00 Z" fill="#1F9E8F"/>
  <circle cx="0" cy="0" r="26" fill="#262130"/>
</svg>
